<svg width="324" height="151" viewBox="0 0 324 151" fill="none" xmlns="http://www.w3.org/2000/svg">
<path d="M215.456 79.5133C215.456 79.5133 225.97 32.9528 248.164 3.16669L324 0C324 0 287.042 34.6773 276.339 53.4896L320.6 50.1974C320.6 50.1974 250.745 100.144 227.261 151C227.261 151 222.161 109.143 246.118 76.3466L215.456 79.5133Z" fill="#FFD93F"/>
<path d="M121.235 19.9094C121.235 19.9094 108.202 25.5218 93.2492 36.9973C78.296 48.4728 70.0167 61.4846 70.0167 61.4846C70.0167 61.4846 74.5499 61.8608 73.1018 64.0869C71.6537 66.3131 67.5298 70.2636 67.5298 70.2636C67.5298 70.2636 75.1166 75.2176 97.5305 84.9686C119.945 94.7197 123.187 96.4128 123.439 95.5348C123.722 94.6569 134.016 97.2907 134.016 97.2907C134.016 97.2907 107.195 82.0213 93.7214 69.9815C93.7214 69.9815 96.9639 67.1596 105.117 64.3378C113.271 61.5159 117.583 60.7321 117.741 59.7288C117.898 58.7255 115.254 58.2865 115.254 58.2865L124.698 55.3706C124.698 55.3706 106.628 54.6808 87.4253 59.0076C87.4253 59.0076 96.4917 44.6163 106.03 37.4049C115.569 30.1935 119.661 28.2809 119.819 26.9013C119.976 25.5218 117.741 24.6752 117.741 24.6752C117.741 24.6752 118.276 21.9788 121.235 19.9094Z" fill="white"/>
<path d="M57.9283 43.0484C57.9283 43.0484 46.6584 55.2137 35.1681 72.9913C23.6777 90.769 8.69313 113.5 12.2819 115.789C15.8706 118.078 21.5371 117.232 21.5371 117.232C21.5371 117.232 20.7816 119.771 22.45 119.991C24.1185 120.21 36.1439 110.083 50.436 104.627C64.7281 99.1404 76.124 96.0677 76.4388 94.5941C76.7536 93.0891 72.063 92.2112 72.3463 92.2112C72.5982 92.2112 77.698 90.9257 78.0757 89.264C78.485 87.6022 74.7703 86.8811 69.1668 87.5395C63.5633 88.1979 38.442 95.6915 38.442 95.6915C38.442 95.6915 56.858 62.6445 67.0891 49.131C77.3202 35.6175 80.6571 32.9838 80.6256 30.9458C80.5942 28.9078 72.1889 29.1587 72.1889 29.1587C72.1889 29.1587 71.0871 26.8385 69.8594 26.8071C68.6317 26.7758 37.4347 28.2181 15.7447 32.4508C-5.94522 36.6836 0.319361 36.9344 2.68038 38.9097C5.00993 40.9163 1.3897 44.961 1.3897 44.961C1.3897 44.961 12.03 44.5221 11.8726 46.7168C11.7152 48.9116 8.40979 51.3885 8.40979 51.3885C8.40979 51.3885 33.657 44.4907 57.9283 43.0484Z" fill="white"/>
<path d="M130.585 21.8848C130.585 21.8848 134.174 40.8852 135.338 57.4714C136.503 74.0575 135.401 88.8251 136.251 89.3268C137.07 89.8285 144.342 86.7871 153.817 87.8218C163.293 88.8565 170.313 89.17 171.1 88.2294C171.887 87.2888 171.132 85.094 171.132 85.094C171.132 85.094 172.957 85.3762 173.304 84.0907C173.65 82.8052 171.887 81.4257 171.887 81.4257C171.887 81.4257 171.887 68.3824 171.132 52.5487C170.408 36.7464 165.528 22.8881 165.528 22.8881C165.528 22.8881 162.317 76.1269 161.404 79.325C161.404 79.325 152.653 76.315 145.916 76.9107C145.916 76.9107 142.107 55.3079 138.959 40.4462C135.811 25.5845 134.929 22.6372 134.174 22.794C133.513 22.9194 132.914 25.6785 132.914 25.6785L130.585 21.8848Z" fill="white"/>
<path d="M243.001 47.9712C243.001 47.9712 217.943 33.8306 201.793 30.0054C185.644 26.1802 182.59 27.0268 183.818 27.936C185.046 28.8139 188.005 30.5071 188.005 30.5071C188.005 30.5071 177.081 30.2563 178.057 31.6045C179.033 32.9527 182.15 43.174 182.087 53.897C182.024 64.62 182.024 71.9568 182.653 72.239C183.283 72.5212 188.855 72.0509 188.855 72.0509C188.855 72.0509 187.47 74.2143 188.792 74.4338C190.114 74.6532 196.505 73.305 203.273 73.744C210.041 74.1829 213.158 75.0295 213.158 75.0295C213.158 75.0295 213.819 89.7971 209.632 100.708C209.632 100.708 177.837 88.01 176.766 89.3895C175.696 90.7377 177.585 93.7791 177.585 93.7791L165.308 98.7644C165.308 98.7644 182.055 102.025 195.875 107.512C209.695 112.999 217.628 117.702 218.919 117.232C220.209 116.761 222.381 110.804 225.844 92.8071C229.307 74.81 227.355 65.9369 226.002 64.8708C222.98 62.5193 191.751 63.8675 191.751 63.8675C191.751 63.8675 193.168 51.1378 192.034 43.4562C192.066 43.4248 193.388 38.6904 243.001 47.9712Z" fill="white"/>
</svg>
